<svg width="1024" height="768" viewBox="0 0 1024 768" fill="none" xmlns="http://www.w3.org/2000/svg">
  <defs>
    <linearGradient id="bgGradient" x1="120" y1="80" x2="930" y2="720" gradientUnits="userSpaceOnUse">
      <stop offset="0" stop-color="#0F172A"/>
      <stop offset="0.5" stop-color="#111B3A"/>
      <stop offset="1" stop-color="#050816"/>
    </linearGradient>
    <radialGradient id="glowBlue" cx="0" cy="0" r="1" gradientUnits="userSpaceOnUse" gradientTransform="translate(780 140) rotate(123) scale(340 290)">
      <stop stop-color="#4F8CFF" stop-opacity="0.34"/>
      <stop offset="1" stop-color="#4F8CFF" stop-opacity="0"/>
    </radialGradient>
    <radialGradient id="glowPurple" cx="0" cy="0" r="1" gradientUnits="userSpaceOnUse" gradientTransform="translate(260 620) rotate(14) scale(380 250)">
      <stop stop-color="#8B5CF6" stop-opacity="0.26"/>
      <stop offset="1" stop-color="#8B5CF6" stop-opacity="0"/>
    </radialGradient>
    <linearGradient id="cardStroke" x1="0" y1="0" x2="1" y2="1">
      <stop stop-color="#6AA9FF" stop-opacity="0.55"/>
      <stop offset="1" stop-color="#8B5CF6" stop-opacity="0.14"/>
    </linearGradient>
    <linearGradient id="panelFill" x1="0" y1="0" x2="0" y2="1">
      <stop stop-color="#162447" stop-opacity="0.92"/>
      <stop offset="1" stop-color="#0D152E" stop-opacity="0.96"/>
    </linearGradient>
    <linearGradient id="accentBlue" x1="0" y1="0" x2="1" y2="1">
      <stop stop-color="#74B2FF"/>
      <stop offset="1" stop-color="#5978FF"/>
    </linearGradient>
    <linearGradient id="accentOrange" x1="0" y1="0" x2="1" y2="1">
      <stop stop-color="#FFB866"/>
      <stop offset="1" stop-color="#FF7A59"/>
    </linearGradient>
    <linearGradient id="accentGold" x1="0" y1="0" x2="1" y2="1">
      <stop stop-color="#FFE483"/>
      <stop offset="1" stop-color="#FFB648"/>
    </linearGradient>
    <pattern id="gridPattern" width="32" height="32" patternUnits="userSpaceOnUse">
      <path d="M32 0H0V32" stroke="#7DD3FC" stroke-opacity="0.08" stroke-width="1"/>
    </pattern>
    <filter id="cardShadow" x="-30" y="-30" width="180" height="180" filterUnits="userSpaceOnUse" color-interpolation-filters="sRGB">
      <feDropShadow dx="0" dy="12" stdDeviation="18" flood-color="#020617" flood-opacity="0.45"/>
    </filter>
    <filter id="softShadow" x="-60" y="-60" width="240" height="240" filterUnits="userSpaceOnUse" color-interpolation-filters="sRGB">
      <feDropShadow dx="0" dy="14" stdDeviation="22" flood-color="#020617" flood-opacity="0.35"/>
    </filter>
  </defs>

  <rect width="1024" height="768" rx="28" fill="url(#bgGradient)"/>
  <rect width="1024" height="768" rx="28" fill="url(#gridPattern)"/>
  <rect width="1024" height="768" rx="28" fill="url(#glowBlue)"/>
  <rect width="1024" height="768" rx="28" fill="url(#glowPurple)"/>

  <g opacity="0.16">
    <circle cx="114" cy="112" r="3" fill="#C7D2FE"/>
    <circle cx="156" cy="112" r="3" fill="#C7D2FE"/>
    <circle cx="198" cy="112" r="3" fill="#C7D2FE"/>
  </g>

  <text x="64" y="92" fill="#F8FAFC" font-size="38" font-weight="700" font-family="Inter, PingFang SC, Microsoft YaHei, sans-serif">SiYuan MCP Sisyphus</text>
  <text x="64" y="126" fill="#CBD5E1" font-size="18" font-weight="500" font-family="Inter, PingFang SC, Microsoft YaHei, sans-serif">8 个聚合工具 + 细粒度权限 + 渐进式披露，让 AI 更稳地接入你的思源知识库</text>

  <g transform="translate(64 166)">
    <rect width="332" height="214" rx="24" fill="url(#panelFill)" stroke="url(#cardStroke)" stroke-width="1.4" filter="url(#cardShadow)"/>
    <rect x="24" y="24" width="44" height="44" rx="12" fill="#11284F" stroke="#7CB3FF" stroke-opacity="0.45"/>
    <rect x="33" y="33" width="10" height="10" rx="2" fill="#87B7FF"/>
    <rect x="49" y="33" width="10" height="10" rx="2" fill="#87B7FF" opacity="0.9"/>
    <rect x="33" y="49" width="10" height="10" rx="2" fill="#87B7FF" opacity="0.9"/>
    <rect x="49" y="49" width="10" height="10" rx="2" fill="#87B7FF" opacity="0.7"/>
    <text x="84" y="49" fill="#F8FAFC" font-size="25" font-weight="700" font-family="Inter, PingFang SC, Microsoft YaHei, sans-serif">8 个聚合工具</text>
    <text x="24" y="96" fill="#D8E3FF" font-size="16" font-weight="500" font-family="Inter, PingFang SC, Microsoft YaHei, sans-serif">把常用能力收敛为稳定的 tool 面</text>
    <text x="24" y="128" fill="#9DB2D7" font-size="15" font-family="Inter, PingFang SC, Microsoft YaHei, sans-serif">• notebook / document / block / file</text>
    <text x="24" y="154" fill="#9DB2D7" font-size="15" font-family="Inter, PingFang SC, Microsoft YaHei, sans-serif">• search / tag / system / mascot</text>
    <text x="24" y="188" fill="#7DD3FC" font-size="14" font-family="Inter, PingFang SC, Microsoft YaHei, sans-serif">减少模型误选工具，接口语义更统一</text>
  </g>

  <g transform="translate(64 402)">
    <rect width="332" height="214" rx="24" fill="url(#panelFill)" stroke="url(#cardStroke)" stroke-width="1.4" filter="url(#cardShadow)"/>
    <rect x="24" y="24" width="44" height="44" rx="12" fill="#17294D" stroke="#85A7FF" stroke-opacity="0.45"/>
    <path d="M39 39H53C59.0751 39 64 43.9249 64 50V54C64 60.0751 59.0751 65 53 65H39C32.9249 65 28 60.0751 28 54V50C28 43.9249 32.9249 39 39 39Z" stroke="#A5B4FC" stroke-width="2"/>
    <circle cx="36" cy="52" r="4" fill="#A5B4FC"/>
    <circle cx="56" cy="52" r="4" fill="#A5B4FC"/>
    <text x="84" y="49" fill="#F8FAFC" font-size="25" font-weight="700" font-family="Inter, PingFang SC, Microsoft YaHei, sans-serif">权限模型</text>
    <text x="24" y="96" fill="#D8E3FF" font-size="16" font-weight="500" font-family="Inter, PingFang SC, Microsoft YaHei, sans-serif">按笔记本控制 AI 可见与可写边界</text>
    <text x="24" y="128" fill="#9DB2D7" font-size="15" font-family="Inter, PingFang SC, Microsoft YaHei, sans-serif">• `none / r / rw / rwd` 四态权限</text>
    <text x="24" y="154" fill="#9DB2D7" font-size="15" font-family="Inter, PingFang SC, Microsoft YaHei, sans-serif">• 调用前先做权限守卫与过滤</text>
    <text x="24" y="188" fill="#7DD3FC" font-size="14" font-family="Inter, PingFang SC, Microsoft YaHei, sans-serif">让自动化链路更细腻，也更可控</text>
  </g>

  <g transform="translate(628 166)">
    <rect width="332" height="214" rx="24" fill="url(#panelFill)" stroke="url(#accentOrange)" stroke-opacity="0.4" stroke-width="1.4" filter="url(#cardShadow)"/>
    <rect x="24" y="24" width="44" height="44" rx="12" fill="#3A2414" stroke="#FFB866" stroke-opacity="0.55"/>
    <path d="M46 33L58 38V46C58 55.3888 52.9974 62.8665 46 66C39.0026 62.8665 34 55.3888 34 46V38L46 33Z" stroke="#FFCB84" stroke-width="2.4" stroke-linejoin="round"/>
    <path d="M46 43V52" stroke="#FFCB84" stroke-width="2.4" stroke-linecap="round"/>
    <circle cx="46" cy="57" r="1.8" fill="#FFCB84"/>
    <text x="84" y="49" fill="#FFF7ED" font-size="25" font-weight="700" font-family="Inter, PingFang SC, Microsoft YaHei, sans-serif">安全与高危确认</text>
    <text x="24" y="96" fill="#FFE9D1" font-size="16" font-weight="500" font-family="Inter, PingFang SC, Microsoft YaHei, sans-serif">把危险操作挡在真正执行前</text>
    <text x="24" y="128" fill="#F4C89B" font-size="15" font-family="Inter, PingFang SC, Microsoft YaHei, sans-serif">• 删除 / 移动 / 上传本地文件先确认</text>
    <text x="24" y="154" fill="#F4C89B" font-size="15" font-family="Inter, PingFang SC, Microsoft YaHei, sans-serif">• 大文件上传需二次确认后重试</text>
    <text x="24" y="188" fill="#FFD08A" font-size="14" font-family="Inter, PingFang SC, Microsoft YaHei, sans-serif">安全约束写进工具说明，AI 更不容易越界</text>
  </g>

  <g transform="translate(628 402)">
    <rect width="332" height="214" rx="24" fill="url(#panelFill)" stroke="url(#cardStroke)" stroke-width="1.4" filter="url(#cardShadow)"/>
    <rect x="24" y="24" width="44" height="44" rx="12" fill="#2E260F" stroke="#FFD36E" stroke-opacity="0.55"/>
    <path d="M34 56C34 48.268 39.8203 42 47 42C54.1797 42 60 48.268 60 56" stroke="#FFD36E" stroke-width="2.4" stroke-linecap="round"/>
    <circle cx="41" cy="57" r="3" fill="#FFD36E"/>
    <circle cx="53" cy="57" r="3" fill="#FFD36E"/>
    <path d="M38 64C40.8 67 43.8667 68.5 47.2 68.5C50.5333 68.5 53.4667 67 56 64" stroke="#FFD36E" stroke-width="2.2" stroke-linecap="round"/>
    <text x="84" y="49" fill="#F8FAFC" font-size="25" font-weight="700" font-family="Inter, PingFang SC, Microsoft YaHei, sans-serif">渐进式披露 + 猫猫反馈</text>
    <text x="24" y="96" fill="#D8E3FF" font-size="16" font-weight="500" font-family="Inter, PingFang SC, Microsoft YaHei, sans-serif">只在需要时展开复杂度，也保留轻反馈</text>
    <text x="24" y="128" fill="#9DB2D7" font-size="15" font-family="Inter, PingFang SC, Microsoft YaHei, sans-serif">• common actions → help → drill-down</text>
    <text x="24" y="154" fill="#9DB2D7" font-size="15" font-family="Inter, PingFang SC, Microsoft YaHei, sans-serif">• mascot 可查看余额、商店与购买动作</text>
    <text x="24" y="188" fill="#7DD3FC" font-size="14" font-family="Inter, PingFang SC, Microsoft YaHei, sans-serif">信息负担更低，调试与回馈也更直观</text>
  </g>

  <g transform="translate(430 170)" filter="url(#softShadow)">
    <rect x="22" y="0" width="120" height="120" rx="28" fill="#152548" stroke="#6FA6FF" stroke-opacity="0.55" stroke-width="1.5"/>
    <rect x="40" y="18" width="84" height="84" rx="22" fill="#10203F" stroke="#75B1FF" stroke-opacity="0.35"/>
    <path d="M82 38C91.1127 38 98.5 45.3873 98.5 54.5C98.5 63.6127 91.1127 71 82 71C72.8873 71 65.5 63.6127 65.5 54.5C65.5 45.3873 72.8873 38 82 38Z" stroke="#A7C6FF" stroke-width="2.4"/>
    <path d="M82 28V38M82 71V81M108 54.5H98.5M65.5 54.5H56M101 36L94 43M70 66L63 73M101 73L94 66M70 43L63 36" stroke="#A7C6FF" stroke-width="2.2" stroke-linecap="round"/>
    <text x="82" y="150" text-anchor="middle" fill="#EEF2FF" font-size="24" font-weight="700" font-family="Inter, PingFang SC, Microsoft YaHei, sans-serif">AI / Agent</text>

    <path d="M82 170V210" stroke="url(#accentBlue)" stroke-width="4" stroke-linecap="round"/>
    <path d="M82 210L74 198H90L82 210Z" fill="#74B2FF"/>

    <rect x="0" y="224" width="164" height="132" rx="30" fill="#162A52" stroke="#7CB3FF" stroke-opacity="0.58" stroke-width="1.5"/>
    <rect x="34" y="251" width="96" height="54" rx="16" fill="#0E1C3A" stroke="#84B6FF" stroke-opacity="0.35"/>
    <rect x="48" y="263" width="16" height="28" rx="4" fill="#93C5FD"/>
    <rect x="74" y="257" width="16" height="34" rx="4" fill="#93C5FD" opacity="0.92"/>
    <rect x="100" y="269" width="16" height="22" rx="4" fill="#93C5FD" opacity="0.8"/>
    <text x="82" y="334" text-anchor="middle" fill="#F8FAFC" font-size="28" font-weight="700" font-family="Inter, PingFang SC, Microsoft YaHei, sans-serif">MCP</text>
    <text x="82" y="362" text-anchor="middle" fill="#D3E2FF" font-size="18" font-family="Inter, PingFang SC, Microsoft YaHei, sans-serif">聚合工具面</text>

    <path d="M82 388V426" stroke="url(#accentBlue)" stroke-width="4" stroke-linecap="round"/>
    <path d="M82 426L74 414H90L82 426Z" fill="#74B2FF"/>

    <rect x="18" y="442" width="128" height="120" rx="28" fill="#191E35" stroke="#8B5CF6" stroke-opacity="0.48" stroke-width="1.5"/>
    <rect x="42" y="466" width="80" height="72" rx="18" fill="#101425" stroke="#BFA7FF" stroke-opacity="0.36"/>
    <path d="M58 485H106" stroke="#C4B5FD" stroke-width="6" stroke-linecap="round"/>
    <path d="M58 503H94" stroke="#C4B5FD" stroke-width="6" stroke-linecap="round" opacity="0.9"/>
    <path d="M58 521H100" stroke="#C4B5FD" stroke-width="6" stroke-linecap="round" opacity="0.8"/>
    <text x="82" y="590" text-anchor="middle" fill="#EEF2FF" font-size="24" font-weight="700" font-family="Inter, PingFang SC, Microsoft YaHei, sans-serif">SiYuan</text>
    <text x="82" y="617" text-anchor="middle" fill="#D8B4FE" font-size="18" font-family="Inter, PingFang SC, Microsoft YaHei, sans-serif">知识库 / API / UI</text>
  </g>

  <g opacity="0.72">
    <path d="M394 276C417 276 420 276 446 276" stroke="#6AA9FF" stroke-opacity="0.35" stroke-width="2" stroke-dasharray="5 7"/>
    <path d="M578 276C602 276 605 276 628 276" stroke="#FFB866" stroke-opacity="0.35" stroke-width="2" stroke-dasharray="5 7"/>
    <path d="M394 512C414 512 419 512 445 512" stroke="#6AA9FF" stroke-opacity="0.35" stroke-width="2" stroke-dasharray="5 7"/>
    <path d="M578 512C600 512 604 512 628 512" stroke="#FFD36E" stroke-opacity="0.35" stroke-width="2" stroke-dasharray="5 7"/>
  </g>

  <g transform="translate(64 650)">
    <rect width="896" height="70" rx="22" fill="#0B1328" fill-opacity="0.76" stroke="#6AA9FF" stroke-opacity="0.24"/>
    <text x="24" y="29" fill="#90BFFF" font-size="13" font-weight="700" font-family="Inter, PingFang SC, Microsoft YaHei, sans-serif">核心能力一览</text>
    <g transform="translate(24 40)" fill="#E2E8F0" font-size="16" font-family="Inter, PingFang SC, Microsoft YaHei, sans-serif">
      <text x="0" y="0">notebook</text>
      <text x="112" y="0">document</text>
      <text x="236" y="0">block</text>
      <text x="320" y="0">file</text>
      <text x="388" y="0">search</text>
      <text x="475" y="0">tag</text>
      <text x="531" y="0">system</text>
      <text x="636" y="0">mascot</text>
      <text x="726" y="0" fill="#8FB9FF">· 适配 AI 自动化链路</text>
    </g>
  </g>

  <g opacity="0.2">
    <path d="M902 95C915 106 922 120 922 136" stroke="#9CC4FF" stroke-width="2" stroke-linecap="round"/>
    <path d="M918 100L922 136L887 126" stroke="#9CC4FF" stroke-width="2" stroke-linecap="round" stroke-linejoin="round"/>
  </g>
</svg>
